solid exported_from_Pointwise
facet normal   1.000000e+00   0.000000e+00   0.000000e+00
  outer loop
    vertex   0.000000e+00  -4.595812e-04   5.152037e-05
    vertex   0.000000e+00  -1.000000e-03   0.000000e+00
    vertex   0.000000e+00  -7.071068e-04  -7.071068e-04
  endloop
endfacet
facet normal   1.000000e+00   0.000000e+00   0.000000e+00
  outer loop
    vertex   0.000000e+00  -1.000000e-03   0.000000e+00
    vertex   0.000000e+00  -4.595812e-04   5.152037e-05
    vertex   0.000000e+00  -7.071068e-04   7.071068e-04
  endloop
endfacet
facet normal   1.000000e+00   0.000000e+00   0.000000e+00
  outer loop
    vertex   0.000000e+00  -1.084202e-19   1.000000e-03
    vertex   0.000000e+00   9.287590e-05   3.941704e-04
    vertex   0.000000e+00   7.071068e-04   7.071068e-04
  endloop
endfacet
facet normal   1.000000e+00   0.000000e+00   0.000000e+00
  outer loop
    vertex   0.000000e+00   9.287590e-05   3.941704e-04
    vertex   0.000000e+00   2.343146e-05  -1.365685e-04
    vertex   0.000000e+00   1.000000e-03  -2.168404e-19
  endloop
endfacet
facet normal   1.000000e+00   0.000000e+00   0.000000e+00
  outer loop
    vertex   0.000000e+00   2.071068e-04  -5.000000e-04
    vertex   0.000000e+00   2.343146e-05  -1.365685e-04
    vertex   0.000000e+00  -7.071068e-04  -7.071068e-04
  endloop
endfacet
facet normal   1.000000e+00  -0.000000e+00   0.000000e+00
  outer loop
    vertex   0.000000e+00   2.071068e-04  -5.000000e-04
    vertex   0.000000e+00   7.071068e-04  -7.071068e-04
    vertex   0.000000e+00   1.000000e-03  -2.168404e-19
  endloop
endfacet
facet normal   1.000000e+00   0.000000e+00   0.000000e+00
  outer loop
    vertex   0.000000e+00   1.000000e-03  -2.168404e-19
    vertex   0.000000e+00   7.071068e-04   7.071068e-04
    vertex   0.000000e+00   9.287590e-05   3.941704e-04
  endloop
endfacet
facet normal   1.000000e+00   0.000000e+00   0.000000e+00
  outer loop
    vertex   0.000000e+00  -4.595812e-04   5.152037e-05
    vertex   0.000000e+00  -7.071068e-04  -7.071068e-04
    vertex   0.000000e+00   2.343146e-05  -1.365685e-04
  endloop
endfacet
facet normal   1.000000e+00   0.000000e+00   0.000000e+00
  outer loop
    vertex   0.000000e+00  -1.084202e-19  -1.000000e-03
    vertex   0.000000e+00   7.071068e-04  -7.071068e-04
    vertex   0.000000e+00   2.071068e-04  -5.000000e-04
  endloop
endfacet
facet normal   1.000000e+00   0.000000e+00   0.000000e+00
  outer loop
    vertex   0.000000e+00   2.071068e-04  -5.000000e-04
    vertex   0.000000e+00  -7.071068e-04  -7.071068e-04
    vertex   0.000000e+00  -1.084202e-19  -1.000000e-03
  endloop
endfacet
facet normal   1.000000e+00   0.000000e+00   0.000000e+00
  outer loop
    vertex   0.000000e+00   9.287590e-05   3.941704e-04
    vertex   0.000000e+00  -4.595812e-04   5.152037e-05
    vertex   0.000000e+00   2.343146e-05  -1.365685e-04
  endloop
endfacet
facet normal   1.000000e+00   0.000000e+00   0.000000e+00
  outer loop
    vertex   0.000000e+00   9.287590e-05   3.941704e-04
    vertex   0.000000e+00  -7.071068e-04   7.071068e-04
    vertex   0.000000e+00  -4.595812e-04   5.152037e-05
  endloop
endfacet
facet normal   1.000000e+00  -0.000000e+00   0.000000e+00
  outer loop
    vertex   0.000000e+00  -7.071068e-04   7.071068e-04
    vertex   0.000000e+00   9.287590e-05   3.941704e-04
    vertex   0.000000e+00  -1.084202e-19   1.000000e-03
  endloop
endfacet
facet normal   1.000000e+00   0.000000e+00   0.000000e+00
  outer loop
    vertex   0.000000e+00   1.000000e-03  -2.168404e-19
    vertex   0.000000e+00   2.343146e-05  -1.365685e-04
    vertex   0.000000e+00   2.071068e-04  -5.000000e-04
  endloop
endfacet
endsolid exported_from_Pointwise
